<svg
  xmlns="http://www.w3.org/2000/svg"
  width="48"
  height="48"
  viewBox="0 0 24 24"
  fill="#ffffff"
>
  <path
    fill-rule="evenodd"
    d="M 4 2 h 16 a 2 2 0 0 1 2 2 v 6 a 2 2 0 0 1 -2 2 h -4.5 c -1.3 0 -1.9 3.2 -3.5 3.2 s -2.2 -3.2 -3.5 -3.2 H 4 a 2 2 0 0 1 -2 -2 V 4 a 2 2 0 0 1 2 -2 z M 4 3.2 h 16 a 0.8 0.8 0 0 1 0.8 0.8 v 6.2 a 0.8 0.8 0 0 1 -0.8 0.8 H 4 a 0.8 0.8 0 0 1 -0.8 -0.8 V 4 a 0.8 0.8 0 0 1 0.8 -0.8 z M 12 12.95 a 0.65 0.65 0 1 0 0 1.3 a 0.65 0.65 0 0 0 0 -1.3 z M 10.5 12.6 a 0.3 0.3 0 1 0 0 0.6 a 0.3 0.3 0 0 0 0 -0.6 z M 13.5 12.6 a 0.3 0.3 0 1 0 0 0.6 a 0.3 0.3 0 0 0 0 -0.6 z"
  />
</svg>
